<svg xmlns="http://www.w3.org/2000/svg" xmlns:xlink="http://www.w3.org/1999/xlink" width="600" height="400" viewBox="0 0 600 400"><defs><style>.a{clip-path:url(#j);}.b{fill:rgba(239,239,239,0.77);}.ab,.c,.d,.k,.m,.n,.p,.x{fill:none;}.c,.d,.w{stroke:#707070;}.c,.d,.n,.x{stroke-linecap:round;}.c{stroke-width:5px;}.d{stroke-width:4px;}.e{fill:rgba(239,239,239,0.59);}.f,.v,.w{fill:rgba(239,239,239,0.85);}.g{fill:#ff0d35;stroke:#ff0d35;}.h,.r,.t{fill:#3a3a3a;}.h{font-size:10px;}.h,.r,.t,.u{font-family:JetBrainsMono-Medium, JetBrains Mono;font-weight:500;}.h,.r{letter-spacing:0.002em;}.i{letter-spacing:0.007em;}.j,.l{fill:#fff;}.j,.k,.l,.m,.n{stroke:#ff6804;}.j,.v,.w,.x{stroke-width:3px;}.k{stroke-width:2px;}.o{fill:#ff6804;}.p{stroke:rgba(112,112,112,0.48);}.q{fill:#198be4;stroke:#198be4;}.r{font-size:12px;}.s{fill:rgba(111,111,111,0.53);}.t,.u{font-size:79px;}.u{fill:#3be86e;}.v{stroke:#6f6f6f;}.x{stroke:#06cd41;}.aa,.y,.z{stroke:none;}.z{fill:#b6b6b6;}.aa{fill:#707070;}.ac{filter:url(#g);}.ad{filter:url(#e);}.ae{filter:url(#c);}.af{filter:url(#a);}</style><filter id="a" x="69.5" y="24.5" width="257" height="157" filterUnits="userSpaceOnUse"><feOffset dy="5" input="SourceAlpha"/><feGaussianBlur stdDeviation="3.5" result="b"/><feFlood flood-opacity="0.31"/><feComposite operator="in" in2="b"/><feComposite in="SourceGraphic"/></filter><filter id="c" x="291" y="142" width="261" height="122" filterUnits="userSpaceOnUse"><feOffset dx="3" dy="3" input="SourceAlpha"/><feGaussianBlur stdDeviation="4" result="d"/><feFlood flood-opacity="0.302"/><feComposite operator="in" in2="d"/><feComposite in="SourceGraphic"/></filter><filter id="e" x="291" y="46" width="261" height="122" filterUnits="userSpaceOnUse"><feOffset dx="3" dy="3" input="SourceAlpha"/><feGaussianBlur stdDeviation="4" result="f"/><feFlood flood-opacity="0.302"/><feComposite operator="in" in2="f"/><feComposite in="SourceGraphic"/></filter><filter id="g" x="291" y="238" width="261" height="122" filterUnits="userSpaceOnUse"><feOffset dx="3" dy="3" input="SourceAlpha"/><feGaussianBlur stdDeviation="4" result="h"/><feFlood flood-opacity="0.302"/><feComposite operator="in" in2="h"/><feComposite in="SourceGraphic"/></filter><clipPath id="j"><rect width="600" height="400"/></clipPath></defs><g id="i" class="a"><g class="af" transform="matrix(1, 0, 0, 1, 0, 0)"><g class="b" transform="translate(80 30)"><path class="y" d="M 170.4996032714844 132.9999237060547 C 169.1392974853516 132.9999237060547 167.7633666992188 132.9685821533203 166.4100646972656 132.9067535400391 L 166.3416748046875 132.9036254882813 L 166.2731628417969 132.9036254882813 L 52.03440093994141 132.9036254882813 C 51.76499938964844 132.9036254882813 51.49309921264648 132.8916168212891 51.22620010375977 132.8679504394531 L 50.98500061035156 132.8465881347656 L 50.74349975585938 132.8641815185547 C 49.50620269775391 132.9542541503906 48.24663543701172 132.9999237060547 46.99980163574219 132.9999237060547 C 41.01050186157227 132.9999237060547 35.20479965209961 131.9782867431641 29.7440013885498 129.9633941650391 C 24.49086761474609 128.0251617431641 19.77863502502441 125.2552185058594 15.73816776275635 121.7306213378906 C 11.72740077972412 118.2318878173828 8.583233833312988 114.1674880981445 6.392934322357178 109.6502532958984 C 4.141567707061768 105.0069885253906 3.000000715255737 100.0780868530273 3.000000715255737 95.00041961669922 C 3.000000715255737 90.46418762207031 3.916534185409546 86.02765655517578 5.724133968353271 81.81398773193359 C 7.480900764465332 77.71881866455078 10.03010082244873 73.93782043457031 13.30086708068848 70.57598876953125 C 19.95623397827148 63.73535537719727 29.19363403320313 59.11941909790039 39.3114013671875 57.57855606079102 L 41.21003341674805 57.28942108154297 L 41.74223327636719 55.44408798217773 C 43.07916641235352 50.80862045288086 45.12693405151367 46.5989875793457 47.82863235473633 42.93212127685547 C 50.60646820068359 39.1619873046875 54.02323532104492 36.04368591308594 57.98410034179688 33.66378784179688 C 60.75883483886719 31.99662017822266 63.75366592407227 30.72538757324219 66.88536834716797 29.8853874206543 C 69.93730163574219 29.06682014465332 73.13896942138672 28.65175437927246 76.40143585205078 28.65175437927246 C 77.05239868164063 28.65175437927246 77.71486663818359 28.66848754882813 78.37043762207031 28.7014217376709 L 80.10040283203125 28.78842163085938 L 81.04063415527344 27.33368682861328 C 85.75589752197266 20.03825378417969 92.34646606445313 13.93925380706787 100.0998687744141 9.696121215820313 C 104.0382995605469 7.540754318237305 108.2488708496094 5.876887321472168 112.614631652832 4.750787734985352 C 117.118537902832 3.589054107666016 121.7903671264648 2.999987602233887 126.5004043579102 2.999987602233887 C 132.7659301757813 2.999987602233887 138.900634765625 4.032087326049805 144.734130859375 6.067620754241943 C 150.3670959472656 8.033187866210938 155.5901336669922 10.88528728485107 160.2581634521484 14.54468727111816 C 164.8812713623047 18.16892051696777 168.8193969726563 22.47345352172852 171.9632415771484 27.33878707885742 C 175.1612396240234 32.28802108764648 177.4423675537109 37.67528915405273 178.7431945800781 43.35092163085938 L 179.2130279541016 45.40095520019531 L 181.3004302978516 45.65818786621094 C 195.7660369873047 47.44088745117188 208.9666748046875 52.83608627319336 218.4705963134766 60.84995269775391 C 223.1046295166016 64.75745391845703 226.7113647460938 69.14418792724609 229.1906280517578 73.88829040527344 C 231.7182006835938 78.72488403320313 232.9998016357422 83.80921936035156 232.9998016357422 89.00008392333984 C 232.9998016357422 94.46835327148438 231.5809631347656 99.80765533447266 228.7827301025391 104.8697204589844 C 226.0357666015625 109.8390197753906 222.0581665039063 114.3833541870117 216.9604034423828 118.3764877319336 C 206.4143981933594 126.6372909545898 192.0290374755859 131.76025390625 176.4542694091797 132.8017578125 L 176.3532409667969 132.8084869384766 L 176.2528991699219 132.8220520019531 C 175.8521270751953 132.8761901855469 175.4419708251953 132.9036254882813 175.0337982177734 132.9036254882813 L 174.7259979248047 132.9036254882813 L 174.6575012207031 132.9036254882813 L 174.5890960693359 132.9067535400391 C 173.2357940673828 132.9685821533203 171.8598937988281 132.9999237060547 170.4996032714844 132.9999237060547 Z"/><path class="z" d="M 170.4996185302734 129.9999237060547 C 171.8273010253906 129.9999237060547 173.1454315185547 129.9695587158203 175.0337982177734 129.9035949707031 L 176.2541198730469 129.8084259033203 C 206.3918609619141 127.7931365966797 229.9997863769531 109.8679504394531 229.9997863769531 89.00009918212891 C 229.9997863769531 69.43581390380859 208.9058685302734 52.08288192749023 180.9335021972656 48.63570404052734 L 176.7587280273438 48.1212043762207 L 175.8190155029297 44.02116775512695 C 170.7696075439453 21.99020385742188 150.0281524658203 5.999989986419678 126.5004043579102 5.999989986419678 C 108.905647277832 5.999989986419678 92.85322570800781 14.58395385742188 83.56018829345703 28.96213340759277 L 81.67972564697266 31.87156105041504 L 78.21986389160156 31.69763374328613 L 76.40150451660156 31.6517391204834 C 70.26779174804688 31.6517391204834 64.59111785888672 33.19388198852539 59.5291862487793 36.23534774780273 C 52.30850982666016 40.57384872436523 47.15461349487305 47.50359725952148 44.62475967407227 56.27541732788086 L 43.56032943725586 59.96606063842773 L 39.76308059692383 60.54434585571289 C 20.19943618774414 63.52377700805664 6.000008106231689 78.01467132568359 6.000008106231689 95.00041961669922 C 6.000008106231689 114.299201965332 24.39243698120117 129.9999237060547 46.99979400634766 129.9999237060547 C 48.18714904785156 129.9999237060547 49.36350631713867 129.9567108154297 50.52582931518555 129.8721008300781 L 51.55218505859375 129.8608856201172 L 52.03440093994141 129.9035949707031 L 166.547119140625 129.9098510742188 C 167.853759765625 129.9695587158203 169.1719360351563 129.9999237060547 170.4996185302734 129.9999237060547 M 170.4996185302734 135.9999237060547 C 169.0798950195313 135.9999237060547 167.6703948974609 135.9674530029297 166.273193359375 135.9035949707031 L 52.03440093994141 135.9035949707031 C 51.67275619506836 135.9035949707031 51.3148307800293 135.8876037597656 50.96133041381836 135.8562774658203 C 49.65547180175781 135.9513092041016 48.33379364013672 135.9999237060547 46.99979400634766 135.9999237060547 C 21.04290008544922 135.9999237060547 7.960727998579387e-06 117.6434936523438 7.960727998579387e-06 95.00041961669922 C 7.960727998579387e-06 74.77780914306641 16.78175735473633 57.97509765625 38.85972213745117 54.61273956298828 C 41.69100952148438 44.79588317871094 47.64514923095703 36.37606048583984 56.43900680541992 31.09231185913086 C 62.58239364624023 27.40106964111328 69.426025390625 25.65174674987793 76.40149688720703 25.65174674987793 C 77.1070556640625 25.65174674987793 77.81339263916016 25.66962242126465 78.52108001708984 25.70520401000977 C 88.49726104736328 10.27009677886963 106.2546157836914 -1.006208185572177e-05 126.5004043579102 -1.006208185572177e-05 C 153.4971923828125 -1.006208185572177e-05 176.0709381103516 18.26298904418945 181.6673583984375 42.68074035644531 C 212.5231170654297 46.4832763671875 235.9997863769531 65.77370452880859 235.9997863769531 89.00009918212891 C 235.9997863769531 113.4677734375 209.9430389404297 133.5690612792969 176.6544342041016 135.7950592041016 C 176.1242980957031 135.8666381835938 175.5835418701172 135.9035949707031 175.0337982177734 135.9035949707031 L 174.7260131835938 135.9035949707031 C 173.3287963867188 135.9674530029297 171.9192962646484 135.9999237060547 170.4996185302734 135.9999237060547 Z"/></g></g><line class="c" y1="82" transform="translate(197.5 107.5)"/><line class="d" y1="21" x2="20" transform="translate(177.5 106.5)"/><line class="d" x1="21" y1="21" transform="translate(198.5 106.5)"/><g class="e" transform="translate(110 119.071)"><path class="y" d="M 41.50020217895508 77.42910003662109 L 1.500001072883606 77.42910003662109 L 1.500001072883606 26.42910003662109 L 21.72171974182129 26.42910003662109 L 41.50020217895508 47.63941955566406 L 41.50020217895508 77.42910003662109 Z"/><path class="aa" d="M 40.00020217895508 75.92910003662109 L 40.00020217895508 48.23027801513672 L 21.06948852539063 27.92910003662109 L 3.000001192092896 27.92910003662109 L 3.000001192092896 75.92910003662109 L 40.00020217895508 75.92910003662109 M 43.00020217895508 78.92910003662109 L 1.089477564164554e-06 78.92910003662109 L 1.089477564164554e-06 24.92910003662109 L 22.37394142150879 24.92910003662109 L 43.00020217895508 47.04856872558594 L 43.00020217895508 78.9281005859375 L 43.00020217895508 78.92910003662109 Z"/></g><g class="f" transform="matrix(-0.695, -0.719, 0.719, -0.695, 140.445, 178.945)"><path class="y" d="M 30.84278869628906 16.5 L 1.157209634780884 16.5 L 15.99999904632568 0.7295371890068054 L 30.84278869628906 16.5 Z"/><path class="aa" d="M 15.99999904632568 1.459073066711426 L 2.314420700073242 16 L 29.68557739257813 16 L 15.99999904632568 1.459073066711426 M 15.99999904632568 1.9073486328125e-06 L 32 17 L -1.9073486328125e-06 17 L 15.99999904632568 1.9073486328125e-06 Z"/></g><g class="g" transform="translate(104 179)"><rect class="y" width="28" height="13"/><rect class="ab" x="0.5" y="0.5" width="27" height="12"/></g><text class="h" transform="translate(109 189)"><tspan x="0" y="0">P</tspan><tspan class="i" y="0">DF</tspan></text><g class="j" transform="translate(180 194)"><rect class="y" width="30" height="39" rx="5"/><rect class="ab" x="1.5" y="1.5" width="27" height="36" rx="3.5"/></g><line class="k" x1="13.121" transform="translate(180.919 218.289)"/><line class="k" x1="13.121" transform="translate(180.919 222.981)"/><g class="l" transform="translate(179 200)"><ellipse class="y" cx="8" cy="7.5" rx="8" ry="7.5"/><ellipse class="ab" cx="8" cy="7.5" rx="7.5" ry="7"/></g><line class="m" y1="7.038" transform="translate(186.883 200.695)"/><line class="n" x1="7.157" transform="translate(186.883 207.733)"/><rect class="o" width="127.632" height="49.265" transform="translate(165.864 189.062) scale(0.139 1)"/><g class="e" transform="translate(79.768 214)"><path class="y" d="M 30.83610534667969 38.8551025390625 L 1.500004529953003 38.8551025390625 L 1.500004529953003 1.500001311302185 L 16.17609596252441 1.500001311302185 L 30.83610534667969 17.1235466003418 L 30.83610534667969 38.8551025390625 Z"/><path class="aa" d="M 29.33610534667969 37.3551025390625 L 29.33610534667969 17.71711349487305 L 15.5266284942627 3.000001192092896 L 3.000004529953003 3.000001192092896 L 3.000004529953003 37.3551025390625 L 29.33610534667969 37.3551025390625 M 32.33610534667969 40.3551025390625 L 32.33510589599609 40.3551025390625 L 4.580688255373389e-06 40.3551025390625 L 4.580688255373389e-06 1.26953125345608e-06 L 16.8255443572998 1.26953125345608e-06 L 32.33610534667969 16.53000068664551 L 32.33610534667969 40.35410308837891 L 32.33610534667969 40.3551025390625 Z"/></g><g class="f" transform="matrix(-0.695, -0.719, 0.719, -0.695, 102.663, 240.115)"><path class="y" d="M 1.121009588241577 12.24197101593018 L 11.99310493469238 0.6922146081924438 L 22.79338836669922 12.17437839508057 L 1.121009588241577 12.24197101593018 Z"/><path class="aa" d="M 11.99296760559082 1.421843528747559 L 2.281766891479492 11.73834609985352 L 21.64002418518066 11.67797088623047 L 11.99296760559082 1.421843528747559 M 11.99324131011963 -0.03740406036376953 L 23.94674110412598 12.67078685760498 L -0.03973770141601563 12.74559688568115 L 11.99324131011963 -0.03740406036376953 Z"/></g><line class="p" x1="15.04" transform="translate(90.672 233.804)"/><line class="p" x1="15.04" transform="translate(90.672 235.299)"/><line class="p" x1="15.04" transform="translate(90.672 236.793)"/><line class="p" x1="15.04" transform="translate(90.672 238.288)"/><line class="p" x1="15.04" transform="translate(90.672 239.782)"/><line class="p" x1="15.04" transform="translate(90.672 241.277)"/><g class="q" transform="translate(73 227)"><rect class="y" width="18" height="17" rx="3"/><rect class="ab" x="0.5" y="0.5" width="17" height="16" rx="2.5"/></g><text class="r" transform="translate(78 240)"><tspan x="0" y="0">W</tspan></text><path class="s" d="M0,0H237V104H0Z" transform="translate(300 148)"/><g class="ae" transform="matrix(1, 0, 0, 1, 0, 0)"><text class="t" transform="translate(300 228)"><tspan x="0" y="0">CLASS</tspan></text></g><path class="s" d="M0,0H237V104H0Z" transform="translate(300 52)"/><g class="ad" transform="matrix(1, 0, 0, 1, 0, 0)"><text class="t" transform="translate(300 132)"><tspan x="0" y="0">SHARE</tspan></text></g><path class="s" d="M0,0H237V104H0Z" transform="translate(300 244)"/><g class="ac" transform="matrix(1, 0, 0, 1, 0, 0)"><text class="u" transform="translate(300 324)"><tspan x="0" y="0">FILES</tspan></text></g><g class="v" transform="translate(220 247)"><rect class="y" width="47" height="57" rx="7"/><rect class="ab" x="1.5" y="1.5" width="44" height="54" rx="5.5"/></g><g class="w" transform="translate(234 242)"><rect class="y" width="20" height="13" rx="6"/><rect class="ab" x="1.5" y="1.5" width="17" height="10" rx="4.5"/></g><line class="x" x2="5" y2="8" transform="translate(234.5 275.5)"/><line class="x" x1="15" y2="15" transform="translate(239.5 268.5)"/></g></svg>