<svg xmlns="http://www.w3.org/2000/svg" xmlns:xlink="http://www.w3.org/1999/xlink" width="600" height="400" viewBox="0 0 600 400"><defs><style>.a{clip-path:url(#t);}.b{fill:rgba(239,239,239,0.72);stroke:#b6b6b6;}.b,.d,.e{stroke-linecap:round;}.b,.d,.e,.l{stroke-width:4px;}.c{fill:#49c06c;}.d,.e,.j,.l,.n{fill:none;}.d,.i,.k,.l{stroke:#06cd41;}.e{stroke:#db9813;}.f{fill:rgba(111,111,111,0.53);}.g{fill:#3a3a3a;}.g,.h{font-size:79px;font-family:JetBrainsMono-Medium, JetBrains Mono;font-weight:500;}.h{fill:#3be86e;}.i{fill:rgba(239,239,239,0.85);stroke-width:5px;}.k,.o{fill:#06cd41;}.m,.o{stroke:none;}.p{filter:url(#q);}.q{filter:url(#o);}.r{filter:url(#m);}.s{filter:url(#k);}.t{filter:url(#i);}.u{filter:url(#g);}.v{filter:url(#e);}.w{filter:url(#c);}.x{filter:url(#a);}</style><filter id="a" x="72.5" y="98.5" width="276" height="118" filterUnits="userSpaceOnUse"><feOffset dy="3" input="SourceAlpha"/><feGaussianBlur stdDeviation="4.5" result="b"/><feFlood flood-opacity="0.2"/><feComposite operator="in" in2="b"/><feComposite in="SourceGraphic"/></filter><filter id="c" x="72.5" y="186.5" width="276" height="118" filterUnits="userSpaceOnUse"><feOffset dy="3" input="SourceAlpha"/><feGaussianBlur stdDeviation="4.5" result="d"/><feFlood flood-opacity="0.2"/><feComposite operator="in" in2="d"/><feComposite in="SourceGraphic"/></filter><filter id="e" x="108" y="135" width="41" height="41" filterUnits="userSpaceOnUse"><feOffset dy="1" input="SourceAlpha"/><feGaussianBlur stdDeviation="4" result="f"/><feFlood flood-opacity="0.38"/><feComposite operator="in" in2="f"/><feComposite in="SourceGraphic"/></filter><filter id="g" x="138.5" y="144.5" width="32" height="22" filterUnits="userSpaceOnUse"><feOffset dy="1" input="SourceAlpha"/><feGaussianBlur stdDeviation="3" result="h"/><feFlood flood-opacity="0.439"/><feComposite operator="in" in2="h"/><feComposite in="SourceGraphic"/></filter><filter id="i" x="158.5" y="144.5" width="32" height="22" filterUnits="userSpaceOnUse"><feOffset dy="1" input="SourceAlpha"/><feGaussianBlur stdDeviation="3" result="j"/><feFlood flood-opacity="0.439"/><feComposite operator="in" in2="j"/><feComposite in="SourceGraphic"/></filter><filter id="k" x="181" y="142" width="356" height="122" filterUnits="userSpaceOnUse"><feOffset dx="3" dy="3" input="SourceAlpha"/><feGaussianBlur stdDeviation="4" result="l"/><feFlood flood-opacity="0.302"/><feComposite operator="in" in2="l"/><feComposite in="SourceGraphic"/></filter><filter id="m" x="181" y="46" width="214" height="122" filterUnits="userSpaceOnUse"><feOffset dx="3" dy="3" input="SourceAlpha"/><feGaussianBlur stdDeviation="4" result="n"/><feFlood flood-opacity="0.302"/><feComposite operator="in" in2="n"/><feComposite in="SourceGraphic"/></filter><filter id="o" x="181" y="238" width="404" height="122" filterUnits="userSpaceOnUse"><feOffset dx="3" dy="3" input="SourceAlpha"/><feGaussianBlur stdDeviation="4" result="p"/><feFlood flood-opacity="0.302"/><feComposite operator="in" in2="p"/><feComposite in="SourceGraphic"/></filter><filter id="q" x="56" y="244" width="84" height="73" filterUnits="userSpaceOnUse"><feOffset dx="2" dy="1" input="SourceAlpha"/><feGaussianBlur stdDeviation="3" result="r"/><feFlood flood-opacity="0.388"/><feComposite operator="in" in2="r"/><feComposite in="SourceGraphic"/></filter><clipPath id="t"><rect width="600" height="400"/></clipPath></defs><g id="s" class="a"><g class="x" transform="matrix(1, 0, 0, 1, 0, 0)"><g class="b" transform="translate(86 109)"><rect class="m" width="249" height="91" rx="11"/><rect class="n" x="2" y="2" width="245" height="87" rx="9"/></g></g><g class="w" transform="matrix(1, 0, 0, 1, 0, 0)"><g class="b" transform="translate(86 197)"><rect class="m" width="249" height="91" rx="11"/><rect class="n" x="2" y="2" width="245" height="87" rx="9"/></g></g><g class="v" transform="matrix(1, 0, 0, 1, 0, 0)"><circle class="c" cx="8.5" cy="8.5" r="8.5" transform="translate(120 146)"/></g><g class="u" transform="matrix(1, 0, 0, 1, 0, 0)"><line class="d" x2="10" transform="translate(149.5 154.5)"/></g><g class="t" transform="matrix(1, 0, 0, 1, 0, 0)"><line class="e" x2="10" transform="translate(169.5 154.5)"/></g><path class="f" d="M0,0H332V104H0Z" transform="translate(190 148)"/><g class="s" transform="matrix(1, 0, 0, 1, 0, 0)"><text class="g" transform="translate(190 228)"><tspan x="0" y="0">PRIVATE</tspan></text></g><path class="f" d="M0,0H190V104H0Z" transform="translate(190 52)"/><g class="r" transform="matrix(1, 0, 0, 1, 0, 0)"><text class="g" transform="translate(190 132)"><tspan x="0" y="0">YOUR</tspan></text></g><path class="f" d="M0,0H379V104H0Z" transform="translate(190 244)"/><g class="q" transform="matrix(1, 0, 0, 1, 0, 0)"><text class="h" transform="translate(190 324)"><tspan x="0" y="0">DATABASE</tspan></text></g><g class="p" transform="matrix(1, 0, 0, 1, 0, 0)"><g class="i" transform="translate(63 252)"><rect class="m" width="66" height="55" rx="5"/><rect class="n" x="2.5" y="2.5" width="61" height="50" rx="2.5"/></g></g><g class="j" transform="translate(1369 221)"><path class="m" d="M-1296,36V16.875h.093a17.223,17.223,0,0,1,7.023-11.622A26.945,26.945,0,0,1-1272.5,0a26.945,26.945,0,0,1,16.383,5.253,17.219,17.219,0,0,1,7.023,11.622h.094V36Z"/><path class="o" d="M -1254 31.00040054321289 L -1254 17.98097801208496 L -1254.0615234375 17.44015502929688 C -1254.229614257813 15.96106719970703 -1254.73095703125 14.52176666259766 -1255.551635742188 13.16225624084473 C -1256.425903320313 11.71381092071533 -1257.640747070313 10.38688945770264 -1259.161987304688 9.218522071838379 C -1262.704711914063 6.498167037963867 -1267.441528320313 5.000000476837158 -1272.5 5.000000476837158 C -1277.558715820313 5.000000476837158 -1282.295532226563 6.49815559387207 -1285.83740234375 9.218022346496582 C -1287.35888671875 10.38673400878906 -1288.573608398438 11.7137336730957 -1289.447998046875 13.16216659545898 C -1290.268920898438 14.52190017700195 -1290.770385742188 15.96133327484131 -1290.938598632813 17.44048881530762 L -1291 17.97971534729004 L -1291 31.00040054321289 L -1254 31.00040054321289 M -1249 36.00040054321289 L -1296 36.00040054321289 L -1296 16.87531089782715 L -1295.906616210938 16.87531089782715 C -1295.404541015625 12.46208953857422 -1292.941650390625 8.370278358459473 -1288.88330078125 5.25284481048584 C -1284.472900390625 1.866033554077148 -1278.654296875 2.716064386731887e-07 -1272.5 2.716064386731887e-07 C -1266.345947265625 2.716064386731887e-07 -1260.52734375 1.866033554077148 -1256.116821289063 5.25284481048584 C -1252.057373046875 8.370489120483398 -1249.59521484375 12.46255588531494 -1249.093505859375 16.87531089782715 L -1249 16.87531089782715 L -1249 36.00040054321289 Z"/></g><g class="k" transform="translate(91 280)"><circle class="m" cx="4.5" cy="4.5" r="4.5"/><circle class="n" cx="4.5" cy="4.5" r="4"/></g><line class="l" y2="8" transform="translate(95.5 284.5)"/></g></svg>